<svg width="181" height="46" viewBox="0 0 181 46" fill="none" xmlns="http://www.w3.org/2000/svg">
<path d="M24.7224 13.3947C17.3255 10.7651 9.28533 10.5479 1.75718 12.7744C1.45794 12.846 1.1762 12.9771 0.928784 13.16C0.681364 13.3429 0.473337 13.5738 0.317122 13.8389C0.160908 14.104 0.0597103 14.3978 0.0195713 14.7029C-0.0205677 15.0079 0.00117516 15.318 0.0835016 15.6144C0.495532 17.268 1.09654 19.1678 1.81837 20.8903C1.83076 20.9305 1.85012 20.9112 1.85012 20.8709C1.74556 20.0631 2.36671 19.0431 3.58498 18.6721C9.43973 16.8088 15.7405 16.8922 21.5439 18.9099C21.758 18.9831 21.9845 19.0127 22.2102 18.997C22.4359 18.9812 22.6561 18.9205 22.858 18.8183C23.0598 18.7161 23.2391 18.5745 23.3853 18.4019C23.5316 18.2292 23.6418 18.0291 23.7094 17.8132C24.4312 15.4897 24.7224 13.9121 24.7945 13.5171C24.8069 13.4435 24.7418 13.4156 24.7224 13.3955V13.3947ZM6.8758 18.5064C5.98901 18.6915 4.76299 18.9827 3.84289 19.2878C2.00347 19.9221 2.08866 22.1604 3.0684 22.8745C3.14042 22.4594 3.58498 21.8948 4.08066 21.7043C5.91698 20.9824 7.88884 20.551 9.88238 20.3729C8.86935 19.9616 7.88109 19.3723 6.88897 18.5056L6.8758 18.5064ZM21.5191 22.9876C18.8765 21.7459 16.0117 21.0466 13.0942 20.931C10.1767 20.8154 7.26557 21.2859 4.53296 22.3146C3.65701 22.6453 3.10867 23.711 3.65701 24.7225C4.61493 26.4543 5.70205 28.1115 6.9091 29.68C6.73562 29.079 7.04232 27.966 8.21955 27.602C11.4755 26.6014 14.8918 27.0258 17.1626 27.9451C17.8039 28.203 18.7116 28.0466 19.2204 27.2845C20.0882 25.9477 20.8775 24.5616 21.5842 23.1332C21.6159 23.0689 21.5842 23.0209 21.5191 22.9876ZM16.2433 31.0113C15.2908 30.5304 14.4198 29.9029 13.6619 29.1518C13.3111 28.8009 12.7945 28.2967 12.25 27.6957C11.0069 27.6957 9.80029 27.8204 8.50998 28.2325C7.31184 28.6073 7.19954 29.9913 7.72387 30.7132C8.61067 31.8184 9.23258 32.4147 10.2247 33.4401C10.7505 33.9559 11.4566 34.2464 12.193 34.25C12.9295 34.2536 13.6384 33.97 14.1692 33.4595C14.9437 32.685 15.42 32.1684 16.2952 31.1763C16.3471 31.1236 16.3269 31.0315 16.2425 31.0113H16.2433Z" fill="black"/>
<path d="M53.2959 12.01V17.29H44.9559V20.23H50.9559V25.24H44.9559V33.25H38.2959V12.01H53.2959ZM70.0718 30.04H62.9918L61.9418 33.25H54.9518L62.7218 12.01H70.4018L78.1418 33.25H71.1218L70.0718 30.04ZM68.4518 25.03L66.5318 19.12L64.6118 25.03H68.4518ZM88.8649 33.46C86.3249 33.46 84.2249 32.87 82.5649 31.69C80.9249 30.49 80.0349 28.74 79.8949 26.44H86.9749C87.0749 27.66 87.6149 28.27 88.5949 28.27C88.9549 28.27 89.2549 28.19 89.4949 28.03C89.7549 27.85 89.8849 27.58 89.8849 27.22C89.8849 26.72 89.6149 26.32 89.0749 26.02C88.5349 25.7 87.6949 25.34 86.5549 24.94C85.1949 24.46 84.0649 23.99 83.1649 23.53C82.2849 23.07 81.5249 22.4 80.8849 21.52C80.2449 20.64 79.9349 19.51 79.9549 18.13C79.9549 16.75 80.3049 15.58 81.0049 14.62C81.7249 13.64 82.6949 12.9 83.9149 12.4C85.1549 11.9 86.5449 11.65 88.0849 11.65C90.6849 11.65 92.7449 12.25 94.2649 13.45C95.8049 14.65 96.6149 16.34 96.6949 18.52H89.5249C89.5049 17.92 89.3549 17.49 89.0749 17.23C88.7949 16.97 88.4549 16.84 88.0549 16.84C87.7749 16.84 87.5449 16.94 87.3649 17.14C87.1849 17.32 87.0949 17.58 87.0949 17.92C87.0949 18.4 87.3549 18.8 87.8749 19.12C88.4149 19.42 89.2649 19.79 90.4249 20.23C91.7649 20.73 92.8649 21.21 93.7249 21.67C94.6049 22.13 95.3649 22.77 96.0049 23.59C96.6449 24.41 96.9649 25.44 96.9649 26.68C96.9649 27.98 96.6449 29.15 96.0049 30.19C95.3649 31.21 94.4349 32.01 93.2149 32.59C91.9949 33.17 90.5449 33.46 88.8649 33.46ZM119.855 12.01V33.25H113.195V24.97H106.865V33.25H100.205V12.01H106.865V19.66H113.195V12.01H119.855ZM130.411 12.01V33.25H123.751V12.01H130.411ZM144.669 33.46C142.669 33.46 140.829 32.99 139.149 32.05C137.489 31.11 136.169 29.81 135.189 28.15C134.209 26.49 133.719 24.62 133.719 22.54C133.719 20.46 134.209 18.59 135.189 16.93C136.169 15.27 137.489 13.98 139.149 13.06C140.829 12.12 142.669 11.65 144.669 11.65C146.669 11.65 148.499 12.12 150.159 13.06C151.819 13.98 153.129 15.27 154.089 16.93C155.069 18.59 155.559 20.46 155.559 22.54C155.559 24.62 155.069 26.49 154.089 28.15C153.129 29.81 151.809 31.11 150.129 32.05C148.469 32.99 146.649 33.46 144.669 33.46ZM144.669 27.25C145.989 27.25 147.009 26.83 147.729 25.99C148.449 25.13 148.809 23.98 148.809 22.54C148.809 21.08 148.449 19.93 147.729 19.09C147.009 18.23 145.989 17.8 144.669 17.8C143.329 17.8 142.299 18.23 141.579 19.09C140.859 19.93 140.499 21.08 140.499 22.54C140.499 23.98 140.859 25.13 141.579 25.99C142.299 26.83 143.329 27.25 144.669 27.25ZM179.232 33.25H172.572L165.522 22.57V33.25H158.862V12.01H165.522L172.572 22.87V12.01H179.232V33.25Z" fill="black"/>
</svg>
